<?xml version="1.0" encoding="UTF-8" standalone="no"?>
<svg
   xmlns:dc="http://purl.org/dc/elements/1.1/"
   xmlns:cc="http://creativecommons.org/ns#"
   xmlns:rdf="http://www.w3.org/1999/02/22-rdf-syntax-ns#"
   xmlns:svg="http://www.w3.org/2000/svg"
   xmlns="http://www.w3.org/2000/svg"
   xml:space="preserve"
   style="enable-background:new 0 0 373 258;"
   viewBox="0 0 373 258"
   y="0px"
   x="0px"
   id="Layer_1"
   version="1.1"><metadata
     id="metadata3823"><rdf:RDF><cc:Work
         rdf:about=""><dc:format>image/svg+xml</dc:format><dc:type
           rdf:resource="http://purl.org/dc/dcmitype/StillImage" /><dc:title></dc:title></cc:Work></rdf:RDF></metadata><defs
     id="defs3821" /><style
     id="style2"
     type="text/css">
	.st0{opacity:0.3;fill:none;stroke:#000000;stroke-width:0.25;stroke-miterlimit:10;}
	.st1{opacity:0.3;}
	.st2{fill:#383839;}
	.st3{fill:#FFFFFF;stroke:#3B3B3C;stroke-miterlimit:10;}
	.st4{fill:#FFFFFF;}
	.st5{fill:none;stroke:#FFFFFF;stroke-miterlimit:10;}
	.st6{fill:none;}
	.st7{fill:#151515;}
	.st8{fill:#070808;}
	.st9{fill:#232323;}
	.st10{fill:#323333;}
	.st11{fill:#8E8E8E;}
	.st12{fill:#373838;}
	.st13{fill:none;stroke:#000000;stroke-miterlimit:10;}
	.st14{fill:#787878;}
	.st15{fill:#282828;}
	.st16{fill:none;stroke:#EC008C;stroke-miterlimit:10;}
	.st17{fill:#FFFFFF;stroke:#EC008C;stroke-miterlimit:10;}
	.st18{fill:none;stroke:#E7872B;stroke-width:0.25;stroke-miterlimit:10;}
	.st19{fill:#E7872B;}
	.st20{opacity:0.3;fill:none;stroke:#000000;stroke-width:1.2974;stroke-miterlimit:10;}
	.st21{fill:#D86E27;}
	.st22{fill:#F49447;}
	.st23{fill:none;stroke:#E7872B;stroke-width:1.2974;stroke-linejoin:round;stroke-miterlimit:10;}
	.st24{fill:none;stroke:#E7872B;stroke-width:1.2974;stroke-miterlimit:10;}
</style><g
     transform="matrix(0.39272311,0,0,0.39272311,569.32782,-454.753)"
     id="g9299"><polygon
       style="opacity:0.3;fill:none;stroke:#000000;stroke-width:1.2974;stroke-miterlimit:10"
       class="st20"
       points="-1100.2,1740.5 -1299,1625.7 -1299,1396.1 -1100.2,1281.3 -901.3,1396.1 -901.3,1625.7 "
       id="polygon3564" /><g
       style="opacity:0.3"
       class="st1"
       id="g3568"><polygon
         points="-1100.5,982.7 -1100.2,982.5 -1099.9,982.7 -643,1246.7 -642.8,1246.8 -642.8,1247.1 -643.2,1774.7 -643.6,1247.1 -643.4,1247.5 -1100.5,983.8 -1099.9,983.8 -1556.9,1247.5 -1556.7,1247.1 -1557.1,1774.7 -1557.6,1247.1 -1557.6,1246.8 -1557.3,1246.7 "
         id="polygon3566" /></g><g
       style="opacity:0.3"
       class="st1"
       id="g3572"><path
         d="m -643.2,1162.7 c 0,0 0.1,41.3 0.3,103.3 0.1,62 0.2,144.6 0.3,227.2 -0.1,82.6 -0.2,165.2 -0.3,227.2 -0.2,62 -0.3,103.3 -0.3,103.3 0,0 -0.1,-41.3 -0.3,-103.3 -0.1,-62 -0.2,-144.6 -0.3,-227.2 0.1,-82.6 0.2,-165.2 0.3,-227.2 0.1,-62 0.3,-103.3 0.3,-103.3 z"
         id="path3570" /></g><g
       style="opacity:0.3"
       class="st1"
       id="g3576"><path
         d="m -744.1,1162.7 c 0,0 0.1,41.3 0.3,103.3 0.1,62 0.2,144.6 0.3,227.2 -0.1,82.6 -0.2,165.2 -0.3,227.2 -0.2,62 -0.3,103.3 -0.3,103.3 0,0 -0.1,-41.3 -0.3,-103.3 -0.1,-62 -0.2,-144.6 -0.3,-227.2 0.1,-82.6 0.2,-165.2 0.3,-227.2 0.2,-62 0.3,-103.3 0.3,-103.3 z"
         id="path3574" /></g><g
       style="opacity:0.3"
       class="st1"
       id="g3580"><path
         d="m -1023.4,1162.7 c 0,0 0.1,41.3 0.3,103.3 0.1,62 0.2,144.6 0.3,227.2 -0.1,82.6 -0.2,165.2 -0.3,227.2 -0.2,62 -0.3,103.3 -0.3,103.3 0,0 -0.1,-41.3 -0.3,-103.3 -0.1,-62 -0.2,-144.6 -0.3,-227.2 0.1,-82.6 0.2,-165.2 0.3,-227.2 0.1,-62 0.3,-103.3 0.3,-103.3 z"
         id="path3578" /></g><g
       style="opacity:0.3"
       class="st1"
       id="g3584"><path
         d="m -1100.3,1162.7 c 0,0 0.1,41.3 0.3,103.3 0.1,62 0.2,144.6 0.3,227.2 -0.1,82.6 -0.2,165.2 -0.3,227.2 -0.2,62 -0.3,103.3 -0.3,103.3 0,0 -0.1,-41.3 -0.3,-103.3 -0.1,-62 -0.2,-144.6 -0.3,-227.2 0.1,-82.6 0.2,-165.2 0.3,-227.2 0.2,-62 0.3,-103.3 0.3,-103.3 z"
         id="path3582" /></g><g
       style="opacity:0.3"
       class="st1"
       id="g3588"><path
         d="m -959,1162.7 c 0,0 0.1,41.3 0.3,103.3 0.1,62 0.2,144.6 0.3,227.2 -0.1,82.6 -0.2,165.2 -0.3,227.2 -0.2,62 -0.3,103.3 -0.3,103.3 0,0 -0.1,-41.3 -0.3,-103.3 -0.1,-62 -0.2,-144.6 -0.3,-227.2 0.1,-82.6 0.2,-165.2 0.3,-227.2 0.1,-62 0.3,-103.3 0.3,-103.3 z"
         id="path3586" /></g><g
       style="opacity:0.3"
       class="st1"
       id="g3592"><path
         d="m -1596.2,1280.1 c 0,0 64.8,-0.1 162,-0.3 97.2,-0.1 226.8,-0.2 356.4,-0.3 129.6,0.1 259.2,0.2 356.4,0.3 97.2,0.2 162,0.3 162,0.3 0,0 -64.8,0.1 -162,0.3 -97.2,0.1 -226.8,0.2 -356.4,0.3 -129.6,-0.1 -259.2,-0.2 -356.4,-0.3 -97.2,-0.2 -162,-0.3 -162,-0.3 z"
         id="path3590" /></g><g
       style="opacity:0.3"
       class="st1"
       id="g3596"><path
         d="m -1596.2,1739.3 c 0,0 64.8,-0.1 162,-0.3 97.2,-0.1 226.8,-0.2 356.4,-0.3 129.6,0.1 259.2,0.2 356.4,0.3 97.2,0.2 162,0.3 162,0.3 0,0 -64.8,0.1 -162,0.3 -97.2,0.1 -226.8,0.2 -356.4,0.3 -129.6,-0.1 -259.2,-0.2 -356.4,-0.3 -97.2,-0.2 -162,-0.3 -162,-0.3 z"
         id="path3594" /></g><g
       style="opacity:0.3"
       class="st1"
       id="g3600"><path
         d="m -1596.2,1620.1 c 0,0 64.8,-0.1 162,-0.3 97.2,-0.1 226.8,-0.2 356.4,-0.3 129.6,0.1 259.2,0.2 356.4,0.3 97.2,0.2 162,0.3 162,0.3 0,0 -64.8,0.1 -162,0.3 -97.2,0.1 -226.8,0.2 -356.4,0.3 -129.6,-0.1 -259.2,-0.2 -356.4,-0.3 -97.2,-0.2 -162,-0.3 -162,-0.3 z"
         id="path3598" /></g><g
       style="opacity:0.3"
       class="st1"
       id="g3604"><path
         d="m -1596.2,1595.9 c 0,0 64.8,-0.1 162,-0.3 97.2,-0.1 226.8,-0.2 356.4,-0.3 129.6,0.1 259.2,0.2 356.4,0.3 97.2,0.2 162,0.3 162,0.3 0,0 -64.8,0.1 -162,0.3 -97.2,0.1 -226.8,0.2 -356.4,0.3 -129.6,-0.1 -259.2,-0.2 -356.4,-0.3 -97.2,-0.2 -162,-0.3 -162,-0.3 z"
         id="path3602" /></g><g
       style="opacity:0.3"
       class="st1"
       id="g3608"><path
         d="m -1596.2,1542.6 c 0,0 64.8,-0.1 162,-0.3 97.2,-0.1 226.8,-0.2 356.4,-0.3 129.6,0.1 259.2,0.2 356.4,0.3 97.2,0.2 162,0.3 162,0.3 0,0 -64.8,0.1 -162,0.3 -97.2,0.1 -226.8,0.2 -356.4,0.3 -129.6,-0.1 -259.2,-0.2 -356.4,-0.3 -97.2,-0.2 -162,-0.3 -162,-0.3 z"
         id="path3606" /></g><g
       style="opacity:0.3"
       class="st1"
       id="g3612"><path
         d="m -1596.2,1514.1 c 0,0 64.8,-0.1 162,-0.3 97.2,-0.1 226.8,-0.2 356.4,-0.3 129.6,0.1 259.2,0.2 356.4,0.3 97.2,0.2 162,0.3 162,0.3 0,0 -64.8,0.1 -162,0.3 -97.2,0.1 -226.8,0.2 -356.4,0.3 -129.6,-0.1 -259.2,-0.2 -356.4,-0.3 -97.2,-0.1 -162,-0.3 -162,-0.3 z"
         id="path3610" /></g><g
       style="opacity:0.3"
       class="st1"
       id="g3616"><path
         d="m -998,1196.2 c 0,0 3.1,0.1 9,0.2 1.5,0 3.1,0 4.9,0.1 1.8,0.1 3.7,0.3 5.9,0.4 2.1,0.2 4.4,0.3 6.8,0.5 2.4,0.3 5,0.6 7.7,1 1.4,0.2 2.7,0.3 4.2,0.5 1.4,0.2 2.9,0.5 4.4,0.7 3,0.5 6.1,1 9.3,1.7 3.2,0.7 6.5,1.5 10,2.3 1.7,0.4 3.5,0.9 5.2,1.4 1.8,0.5 3.6,1 5.4,1.5 14.6,4.3 30.7,10.5 47.2,19.3 1.1,0.5 2.1,1.1 3.1,1.7 1,0.6 2.1,1.2 3.1,1.8 2.1,1.2 4.2,2.4 6.3,3.6 2.1,1.3 4.1,2.6 6.2,4 1,0.7 2.1,1.3 3.1,2 1.1,0.7 2.1,1.4 3.1,2.2 2.1,1.5 4.1,2.9 6.2,4.4 1.1,0.7 2.1,1.5 3.1,2.3 1,0.8 2,1.6 3.1,2.4 1,0.8 2.1,1.6 3.1,2.4 l 1.6,1.2 1.5,1.3 c 2,1.7 4,3.5 6,5.2 l 1.5,1.3 c 0.5,0.4 1,0.9 1.5,1.4 1,0.9 2,1.9 2.9,2.8 1,0.9 2,1.9 3,2.8 l 1.5,1.4 c 0.5,0.5 1,1 1.4,1.5 1.9,2 3.8,4 5.7,6 l 1.4,1.5 1.4,1.6 c 0.9,1.1 1.8,2.1 2.8,3.2 3.8,4.2 7.2,8.7 10.8,13.2 1.7,2.3 3.4,4.7 5.1,7 0.8,1.2 1.7,2.4 2.5,3.6 0.8,1.2 1.6,2.5 2.4,3.7 12.9,19.6 23.3,41.7 30.4,65.2 0.8,3 1.7,5.9 2.5,8.9 0.8,3 1.4,6 2.1,9 l 1,4.5 0.8,4.6 0.8,4.6 c 0.3,1.5 0.6,3.1 0.8,4.6 0.4,3.1 0.8,6.2 1.2,9.3 0.1,0.8 0.2,1.5 0.3,2.3 l 0.2,2.3 0.4,4.7 0.4,4.7 c 0.1,1.6 0.1,3.1 0.2,4.7 l 0.2,9.4 -0.2,9.4 c -0.1,1.6 0,3.1 -0.2,4.7 l -0.4,4.7 -0.4,4.7 -0.2,2.3 c -0.1,0.8 -0.2,1.5 -0.3,2.3 -0.4,3.1 -0.8,6.2 -1.2,9.3 -0.2,1.5 -0.5,3.1 -0.8,4.6 l -0.8,4.6 -0.8,4.6 -1,4.5 c -0.7,3 -1.3,6 -2.1,9 -0.8,3 -1.7,5.9 -2.5,8.9 -7.2,23.5 -17.6,45.6 -30.4,65.2 -0.8,1.2 -1.6,2.5 -2.4,3.7 -0.8,1.2 -1.7,2.4 -2.5,3.6 -1.7,2.4 -3.3,4.7 -5.1,7 -3.6,4.5 -7,9.1 -10.8,13.2 -0.9,1.1 -1.8,2.1 -2.8,3.2 l -1.4,1.6 -1.4,1.5 c -1.9,2 -3.8,4 -5.7,6 -0.5,0.5 -0.9,1 -1.4,1.5 l -1.5,1.4 c -1,0.9 -2,1.9 -3,2.8 -1,0.9 -2,1.9 -2.9,2.8 -0.5,0.5 -1,0.9 -1.5,1.4 l -1.5,1.3 c -2,1.8 -4,3.5 -6,5.2 l -1.5,1.3 -1.6,1.2 c -1,0.8 -2.1,1.6 -3.1,2.4 -1,0.8 -2,1.6 -3.1,2.4 -1,0.8 -2,1.6 -3.1,2.3 -2.1,1.5 -4.2,3 -6.2,4.4 -1,0.7 -2,1.5 -3.1,2.2 -1.1,0.7 -2.1,1.3 -3.1,2 -2.1,1.3 -4.2,2.7 -6.2,4 -2.1,1.3 -4.2,2.4 -6.3,3.6 -1,0.6 -2.1,1.2 -3.1,1.8 -1,0.6 -2,1.2 -3.1,1.7 -16.5,8.8 -32.6,15 -47.2,19.3 -1.8,0.5 -3.6,1 -5.4,1.5 -1.8,0.5 -3.5,1 -5.2,1.4 -3.5,0.8 -6.8,1.5 -10,2.3 -3.2,0.6 -6.3,1.1 -9.3,1.7 -1.5,0.3 -2.9,0.5 -4.4,0.7 -1.4,0.2 -2.8,0.3 -4.2,0.5 -2.7,0.3 -5.3,0.7 -7.7,1 -2.4,0.2 -4.7,0.4 -6.8,0.5 -2.1,0.2 -4.1,0.3 -5.9,0.4 -1.8,0.1 -3.4,0.1 -4.9,0.1 -5.8,0.1 -9,0.2 -9,0.2 0,0 3.1,-0.1 9,-0.3 1.5,-0.1 3.1,0 4.9,-0.2 1.8,-0.1 3.7,-0.3 5.9,-0.5 2.1,-0.2 4.4,-0.3 6.8,-0.6 2.4,-0.3 5,-0.6 7.7,-1 1.4,-0.2 2.7,-0.4 4.2,-0.5 1.4,-0.2 2.9,-0.5 4.3,-0.8 3,-0.6 6.1,-1.1 9.3,-1.7 3.2,-0.7 6.5,-1.5 10,-2.3 1.7,-0.4 3.5,-0.9 5.2,-1.4 1.8,-0.5 3.6,-1 5.4,-1.5 14.5,-4.4 30.5,-10.7 47,-19.5 1,-0.5 2.1,-1.1 3.1,-1.7 1,-0.6 2,-1.2 3.1,-1.8 2.1,-1.2 4.2,-2.4 6.2,-3.6 2,-1.3 4.1,-2.6 6.2,-4 1,-0.7 2.1,-1.3 3.1,-2 1,-0.7 2,-1.4 3.1,-2.2 2,-1.5 4.1,-2.9 6.2,-4.4 1.1,-0.7 2.1,-1.5 3.1,-2.3 1,-0.8 2,-1.6 3,-2.4 1,-0.8 2,-1.6 3.1,-2.4 l 1.5,-1.2 1.5,-1.3 c 2,-1.7 4,-3.5 6,-5.2 l 1.5,-1.3 c 0.5,-0.4 1,-0.9 1.5,-1.4 1,-0.9 1.9,-1.9 2.9,-2.8 1,-0.9 2,-1.9 2.9,-2.8 l 1.5,-1.4 c 0.5,-0.5 0.9,-1 1.4,-1.5 1.9,-2 3.8,-4 5.7,-6 l 1.4,-1.5 1.4,-1.6 c 0.9,-1.1 1.8,-2.1 2.7,-3.2 3.8,-4.2 7.2,-8.7 10.7,-13.2 1.7,-2.3 3.3,-4.7 5,-7 0.8,-1.2 1.7,-2.4 2.5,-3.5 0.8,-1.2 1.6,-2.4 2.4,-3.7 12.8,-19.5 23.1,-41.6 30.2,-65 0.8,-2.9 1.7,-5.9 2.5,-8.9 0.8,-3 1.4,-6 2.1,-9 l 1,-4.5 0.8,-4.6 0.8,-4.6 c 0.3,-1.5 0.6,-3 0.7,-4.6 0.4,-3.1 0.8,-6.1 1.2,-9.2 0.1,-0.8 0.2,-1.5 0.3,-2.3 l 0.2,-2.3 0.3,-4.6 0.3,-4.6 c 0.1,-1.5 0.1,-3.1 0.2,-4.7 l 0.2,-9.3 -0.2,-9.3 c -0.1,-1.6 0,-3.1 -0.2,-4.7 l -0.3,-4.6 -0.3,-4.6 -0.2,-2.3 c -0.1,-0.8 -0.2,-1.5 -0.3,-2.3 -0.4,-3.1 -0.8,-6.2 -1.2,-9.2 -0.2,-1.5 -0.5,-3.1 -0.7,-4.6 l -0.8,-4.6 -0.8,-4.6 -1,-4.5 c -0.7,-3 -1.3,-6 -2.1,-9 -0.8,-3 -1.7,-5.9 -2.5,-8.9 -7.1,-23.4 -17.4,-45.5 -30.2,-65 -0.8,-1.2 -1.6,-2.5 -2.4,-3.7 -0.8,-1.2 -1.7,-2.4 -2.5,-3.5 -1.7,-2.3 -3.3,-4.7 -5,-7 -3.6,-4.5 -7,-9 -10.7,-13.2 -0.9,-1.1 -1.8,-2.1 -2.7,-3.2 l -1.4,-1.6 -1.4,-1.5 c -1.9,-2 -3.8,-4 -5.7,-6 -0.5,-0.5 -0.9,-1 -1.4,-1.5 l -1.5,-1.4 c -1,-0.9 -2,-1.9 -2.9,-2.8 -1,-0.9 -2,-1.9 -2.9,-2.8 -0.5,-0.5 -1,-0.9 -1.5,-1.4 l -1.5,-1.3 c -2,-1.8 -4,-3.5 -6,-5.2 l -1.5,-1.3 -1.5,-1.2 c -1,-0.8 -2.1,-1.6 -3.1,-2.4 -1,-0.8 -2,-1.6 -3,-2.4 -1,-0.8 -2,-1.6 -3.1,-2.3 -2.1,-1.5 -4.1,-3 -6.2,-4.4 -1,-0.7 -2,-1.5 -3.1,-2.2 -1,-0.7 -2.1,-1.3 -3.1,-2 -2.1,-1.3 -4.1,-2.7 -6.2,-4 -2.1,-1.3 -4.2,-2.4 -6.2,-3.6 -1,-0.6 -2.1,-1.2 -3.1,-1.8 -1,-0.6 -2,-1.2 -3.1,-1.7 -16.5,-8.8 -32.5,-15.1 -47,-19.5 -1.8,-0.5 -3.6,-1 -5.4,-1.5 -1.8,-0.5 -3.5,-1.1 -5.2,-1.4 -3.5,-0.8 -6.8,-1.6 -10,-2.3 -3.2,-0.7 -6.3,-1.2 -9.3,-1.7 -1.5,-0.3 -2.9,-0.5 -4.3,-0.8 -1.4,-0.2 -2.8,-0.4 -4.2,-0.5 -2.7,-0.4 -5.3,-0.7 -7.7,-1 -2.4,-0.2 -4.7,-0.4 -6.8,-0.6 -2.1,-0.2 -4.1,-0.3 -5.9,-0.5 -1.8,-0.1 -3.4,-0.1 -4.9,-0.2 -5.9,-0.2 -9,-0.3 -9,-0.3 z"
         id="path3614" /></g><g
       style="opacity:0.3"
       class="st1"
       id="g3620"><path
         d="m -998,1022.1 c 0,0 5.3,0.1 15.1,0.4 1.2,0 2.5,0.1 3.9,0.1 1.4,0 2.8,0 4.3,0.2 3,0.2 6.3,0.5 9.9,0.7 3.6,0.3 7.4,0.5 11.5,0.9 4.1,0.5 8.4,1 12.9,1.6 2.3,0.3 4.6,0.6 7,0.9 2.4,0.4 4.8,0.8 7.3,1.3 2.5,0.4 5.1,0.9 7.7,1.4 1.3,0.2 2.6,0.5 4,0.7 1.3,0.2 2.7,0.4 4,0.8 5.4,1.2 11,2.5 16.9,3.9 0.7,0.2 1.5,0.3 2.2,0.5 0.7,0.2 1.5,0.4 2.2,0.6 1.5,0.4 2.9,0.8 4.4,1.3 3,0.8 6,1.7 9.1,2.6 24.6,7.3 51.7,17.7 79.5,32.6 0.9,0.5 1.8,0.9 2.6,1.4 0.9,0.5 1.7,1 2.6,1.5 1.7,1 3.5,2 5.2,3 3.5,2 7,4 10.5,6.1 3.5,2.2 6.9,4.4 10.5,6.7 1.8,1.1 3.5,2.3 5.3,3.4 1.8,1.1 3.5,2.4 5.2,3.6 3.5,2.5 7,4.9 10.5,7.4 1.8,1.2 3.5,2.6 5.2,3.9 1.7,1.3 3.4,2.7 5.2,4 1.7,1.4 3.5,2.7 5.2,4.1 l 2.6,2.1 2.5,2.2 c 3.4,2.9 6.8,5.9 10.2,8.8 l 2.6,2.2 c 0.8,0.8 1.6,1.6 2.5,2.3 1.6,1.6 3.3,3.1 5,4.7 1.7,1.6 3.3,3.2 5,4.8 l 2.5,2.4 c 0.8,0.8 1.6,1.7 2.4,2.5 3.2,3.4 6.4,6.7 9.7,10.1 l 2.4,2.6 2.3,2.7 c 1.5,1.8 3.1,3.6 4.7,5.4 6.4,7 12.1,14.7 18.2,22.3 0.4,0.5 0.8,0.9 1.1,1.4 l 1.1,1.5 2.1,3 c 1.4,2 2.8,4 4.2,6 1.4,2 2.8,4 4.3,6 1.3,2.1 2.7,4.1 4,6.2 21.6,33 39.2,70.2 51.2,109.8 1.4,5 2.8,10 4.3,15 0.2,0.6 0.4,1.2 0.5,1.9 l 0.4,1.9 0.9,3.8 c 0.6,2.5 1.2,5.1 1.8,7.6 0.6,2.5 1.2,5.1 1.7,7.6 0.5,2.6 0.9,5.1 1.4,7.7 l 1.4,7.7 c 0.4,2.6 1,5.1 1.3,7.8 0.7,5.2 1.3,10.4 2,15.6 0.2,1.3 0.4,2.6 0.5,3.9 l 0.3,3.9 0.6,7.9 0.6,7.9 c 0.1,1.3 0.2,2.6 0.2,3.9 l 0.1,3.9 0.4,15.8 -0.4,15.8 -0.1,3.9 c 0,1.3 -0.1,2.6 -0.2,3.9 l -0.6,7.9 -0.6,7.9 -0.3,3.9 c -0.1,1.3 -0.3,2.6 -0.5,3.9 -0.7,5.2 -1.3,10.4 -2,15.6 -0.3,2.6 -0.8,5.2 -1.3,7.8 l -1.4,7.7 c -0.5,2.6 -0.9,5.1 -1.4,7.7 -0.6,2.6 -1.2,5.1 -1.7,7.6 -0.6,2.5 -1.2,5.1 -1.8,7.6 l -0.9,3.8 -0.4,1.9 c -0.2,0.6 -0.4,1.3 -0.5,1.9 -1.4,5 -2.8,10 -4.3,15 -12,39.6 -29.6,76.9 -51.2,109.8 -1.3,2.1 -2.7,4.1 -4,6.2 -1.4,2 -2.8,4 -4.3,6 -1.4,2 -2.8,4 -4.2,6 l -2.1,3 -1.1,1.5 c -0.4,0.5 -0.7,1 -1.1,1.4 -6,7.6 -11.8,15.3 -18.2,22.3 -1.6,1.8 -3.1,3.6 -4.7,5.4 l -2.3,2.7 -2.4,2.6 c -3.2,3.4 -6.5,6.8 -9.7,10.1 -0.8,0.8 -1.6,1.7 -2.4,2.5 l -2.5,2.4 c -1.7,1.6 -3.3,3.2 -5,4.8 -1.7,1.6 -3.3,3.2 -5,4.7 -0.8,0.8 -1.6,1.6 -2.5,2.3 l -2.6,2.2 c -3.4,3 -6.8,5.9 -10.2,8.8 l -2.5,2.2 -2.6,2.1 c -1.7,1.4 -3.5,2.7 -5.2,4.1 -1.7,1.4 -3.4,2.7 -5.2,4.1 -1.7,1.3 -3.4,2.7 -5.2,3.9 -3.5,2.5 -7,5 -10.5,7.4 -1.7,1.2 -3.4,2.5 -5.2,3.6 -1.8,1.1 -3.5,2.3 -5.3,3.4 -3.5,2.3 -7,4.5 -10.5,6.7 -3.5,2.1 -7.1,4.1 -10.5,6.1 -1.7,1 -3.5,2 -5.2,3 -0.9,0.5 -1.7,1 -2.6,1.5 -0.9,0.5 -1.8,0.9 -2.6,1.4 -27.9,14.8 -55,25.3 -79.5,32.6 -3.1,0.9 -6.1,1.7 -9.1,2.6 -1.5,0.4 -3,0.8 -4.4,1.3 -0.7,0.2 -1.5,0.4 -2.2,0.6 -0.7,0.2 -1.5,0.3 -2.2,0.5 -5.8,1.3 -11.5,2.6 -16.9,3.9 -1.3,0.3 -2.7,0.5 -4,0.8 -1.3,0.2 -2.7,0.5 -4,0.7 -2.6,0.5 -5.2,0.9 -7.7,1.4 -2.5,0.4 -4.9,0.9 -7.3,1.3 -2.4,0.3 -4.7,0.6 -7,0.9 -4.6,0.6 -8.9,1.1 -12.9,1.6 -4.1,0.4 -7.9,0.6 -11.5,0.9 -3.6,0.3 -6.9,0.5 -9.9,0.7 -1.5,0.1 -3,0.1 -4.3,0.2 -1.4,0 -2.7,0.1 -3.9,0.1 -9.8,0.2 -15.1,0.4 -15.1,0.4 0,0 5.3,-0.1 15.1,-0.4 1.2,0 2.5,-0.1 3.9,-0.1 1.4,-0.1 2.8,0 4.3,-0.2 3,-0.2 6.3,-0.5 9.9,-0.8 3.6,-0.3 7.4,-0.5 11.5,-0.9 4.1,-0.5 8.4,-1.1 12.9,-1.7 2.3,-0.3 4.6,-0.6 7,-0.9 2.4,-0.4 4.8,-0.9 7.3,-1.3 2.5,-0.5 5.1,-0.9 7.7,-1.4 1.3,-0.2 2.6,-0.5 4,-0.7 1.3,-0.2 2.7,-0.5 4,-0.8 5.4,-1.3 11,-2.6 16.8,-3.9 0.7,-0.2 1.5,-0.3 2.2,-0.5 0.7,-0.2 1.5,-0.4 2.2,-0.6 1.5,-0.4 2.9,-0.8 4.4,-1.3 3,-0.9 6,-1.7 9.1,-2.6 24.5,-7.4 51.5,-17.9 79.3,-32.7 0.9,-0.5 1.8,-0.9 2.6,-1.4 0.9,-0.5 1.7,-1 2.6,-1.5 1.7,-1 3.5,-2 5.2,-3 3.5,-2 7,-4 10.5,-6.1 3.4,-2.2 6.9,-4.4 10.4,-6.7 1.8,-1.1 3.5,-2.3 5.3,-3.4 1.8,-1.1 3.4,-2.4 5.2,-3.6 3.5,-2.5 6.9,-4.9 10.5,-7.4 1.8,-1.2 3.5,-2.6 5.2,-3.9 1.7,-1.3 3.4,-2.7 5.1,-4 1.7,-1.4 3.5,-2.7 5.2,-4.1 l 2.6,-2.1 2.5,-2.2 c 3.4,-2.9 6.7,-5.8 10.2,-8.8 l 2.6,-2.2 c 0.8,-0.8 1.6,-1.6 2.5,-2.3 1.6,-1.6 3.3,-3.1 4.9,-4.7 1.7,-1.6 3.3,-3.2 5,-4.7 l 2.5,-2.4 c 0.8,-0.8 1.6,-1.7 2.4,-2.5 3.2,-3.4 6.4,-6.7 9.6,-10.1 l 2.4,-2.6 2.3,-2.7 c 1.5,-1.8 3.1,-3.6 4.6,-5.4 6.4,-7 12.1,-14.7 18.1,-22.3 0.4,-0.5 0.8,-0.9 1.1,-1.4 l 1.1,-1.5 2.1,-3 c 1.4,-2 2.8,-4 4.2,-6 1.4,-2 2.8,-4 4.2,-6 1.3,-2.1 2.7,-4.1 4,-6.2 21.6,-32.9 39,-70.1 51,-109.6 1.4,-5 2.8,-9.9 4.2,-14.9 0.2,-0.6 0.4,-1.2 0.5,-1.9 l 0.4,-1.9 0.9,-3.8 c 0.6,-2.5 1.2,-5.1 1.7,-7.6 0.6,-2.5 1.2,-5.1 1.7,-7.6 0.5,-2.6 0.9,-5.1 1.4,-7.7 l 1.4,-7.7 c 0.4,-2.6 1,-5.1 1.2,-7.7 0.7,-5.2 1.3,-10.4 2,-15.6 0.2,-1.3 0.4,-2.6 0.5,-3.9 l 0.3,-3.9 0.6,-7.8 0.6,-7.8 c 0.1,-1.3 0.2,-2.6 0.2,-3.9 l 0.1,-3.9 0.4,-15.8 -0.4,-15.7 -0.1,-3.9 c 0,-1.3 -0.1,-2.6 -0.2,-3.9 l -0.6,-7.8 -0.6,-7.8 -0.3,-3.9 c -0.1,-1.3 -0.3,-2.6 -0.5,-3.9 -0.7,-5.2 -1.3,-10.4 -2,-15.6 -0.3,-2.6 -0.8,-5.2 -1.2,-7.7 l -1.4,-7.7 c -0.5,-2.6 -0.9,-5.1 -1.4,-7.7 -0.5,-2.5 -1.2,-5.1 -1.7,-7.6 -0.6,-2.5 -1.2,-5.1 -1.7,-7.6 l -0.9,-3.8 -0.4,-1.9 c -0.2,-0.6 -0.3,-1.2 -0.5,-1.9 -1.4,-5 -2.8,-10 -4.2,-14.9 -11.9,-39.5 -29.4,-76.7 -51,-109.6 -1.3,-2.1 -2.7,-4.1 -4,-6.2 -1.4,-2 -2.8,-4 -4.2,-6 -1.4,-2 -2.8,-4 -4.2,-6 l -2.1,-3 -1.1,-1.5 c -0.4,-0.5 -0.7,-1 -1.1,-1.4 -6,-7.6 -11.7,-15.3 -18.1,-22.3 -1.5,-1.8 -3.1,-3.6 -4.6,-5.4 l -2.3,-2.7 -2.4,-2.6 c -3.2,-3.4 -6.4,-6.8 -9.6,-10.1 -0.8,-0.8 -1.6,-1.7 -2.4,-2.5 l -2.5,-2.4 c -1.7,-1.6 -3.3,-3.2 -5,-4.7 -1.7,-1.6 -3.3,-3.2 -4.9,-4.7 -0.8,-0.8 -1.6,-1.6 -2.5,-2.3 l -2.6,-2.2 c -3.4,-3 -6.8,-5.9 -10.2,-8.8 l -2.5,-2.2 -2.6,-2.1 c -1.7,-1.4 -3.5,-2.7 -5.2,-4.1 -1.7,-1.4 -3.4,-2.7 -5.1,-4 -1.7,-1.3 -3.4,-2.7 -5.2,-3.9 -3.5,-2.5 -7,-5 -10.5,-7.4 -1.7,-1.2 -3.4,-2.5 -5.2,-3.6 -1.8,-1.1 -3.5,-2.3 -5.3,-3.4 -3.5,-2.3 -7,-4.5 -10.4,-6.7 -3.5,-2.1 -7.1,-4.1 -10.5,-6.1 -1.7,-1 -3.5,-2 -5.2,-3 -0.9,-0.5 -1.7,-1 -2.6,-1.5 -0.9,-0.5 -1.8,-0.9 -2.6,-1.4 -27.8,-14.8 -54.8,-25.4 -79.3,-32.7 -3.1,-0.9 -6.1,-1.7 -9.1,-2.6 -1.5,-0.4 -3,-0.8 -4.4,-1.3 -0.7,-0.2 -1.5,-0.4 -2.2,-0.6 -0.7,-0.2 -1.5,-0.3 -2.2,-0.5 -5.8,-1.4 -11.4,-2.7 -16.8,-3.9 -1.3,-0.3 -2.7,-0.6 -4,-0.8 -1.3,-0.2 -2.7,-0.5 -4,-0.7 -2.6,-0.5 -5.2,-0.9 -7.7,-1.4 -2.5,-0.4 -4.9,-0.9 -7.3,-1.3 -2.4,-0.3 -4.7,-0.6 -7,-0.9 -4.6,-0.6 -8.9,-1.1 -12.9,-1.7 -4.1,-0.4 -7.9,-0.6 -11.5,-0.9 -3.6,-0.3 -6.9,-0.5 -9.9,-0.8 -1.5,-0.2 -3,-0.1 -4.3,-0.2 -1.4,0 -2.7,-0.1 -3.9,-0.1 -9.9,-1.3 -15.1,-1.4 -15.1,-1.4 z"
         id="path3618" /></g><g
       id="g3666"><g
         id="g3634"><polygon
           style="fill:#323333"
           class="st10"
           points="-1100.2,1739.3 -959,1541 -1100.2,1622.8 "
           id="polygon3622" /><polygon
           style="fill:#151515"
           class="st7"
           points="-1100.3,1280.1 -959,1514.1 -1100.2,1595.9 "
           id="polygon3624" /><polygon
           style="fill:#8e8e8e"
           class="st11"
           points="-1100.2,1739.3 -1241.4,1541 -1100.2,1622.8 "
           id="polygon3626" /><polygon
           style="fill:#373838"
           class="st12"
           points="-1100.3,1280.1 -1241.4,1514.1 -1100.2,1595.9 "
           id="polygon3628" /><polyline
           style="fill:#8e8e8e"
           class="st11"
           points="-1100.2,1451.3 -1241.4,1514.1 -1100.3,1280.1   "
           id="polyline3630" /><polygon
           style="fill:#323333"
           class="st10"
           points="-959,1514.1 -1100.2,1451.3 -1100.3,1280.1 "
           id="polygon3632" /></g><polygon
         style="fill:#d86e27"
         class="st21"
         points="-1023.4,1440.7 -1017.2,1452.7 -744.1,1416.8 -937.7,1397.7 "
         id="polygon3636" /><polygon
         style="fill:#e7872b"
         class="st19"
         points="-643.2,1250 -937.7,1397.7 -744.1,1416.8 "
         id="polygon3638" /><polyline
         style="fill:#f49447"
         class="st22"
         points="-937.7,1397.7 -643.2,1250 -643.2,1201.6 -1021.6,1434 -1023.4,1440.7 -937.7,1397.7  "
         id="polyline3640" /><polygon
         style="fill:none"
         class="st6"
         points="-1015.5,1471 -1015.4,1470.3 -1017.6,1470.4 "
         id="polygon3642" /><polygon
         style="fill:#d86e27"
         class="st21"
         points="-997.5,1478 -886.9,1542.5 -793.4,1524.6 -1010.9,1461.7 "
         id="polygon3644" /><polygon
         style="fill:#e7872b"
         class="st19"
         points="-793.4,1524.6 -793.4,1524.6 -738.3,1475.9 -804.5,1457 -1010.8,1461.1 -1010.9,1461.7 "
         id="polygon3646" /><polygon
         style="fill:#f49447"
         class="st22"
         points="-804.5,1457 -867.2,1439.2 -1008.7,1457.8 -1010.3,1458.1 -1010.8,1461.1 "
         id="polygon3648" /><g
         id="g3664"><g
           id="g3662"><polygon
             style="fill:none;stroke:#e7872b;stroke-width:1.2974;stroke-linejoin:round;stroke-miterlimit:10"
             class="st23"
             points="-1178.2,1440.7 -1184.4,1452.7 -1457.5,1416.9 -1263.9,1397.8 "
             id="polygon3650" /><polygon
             style="fill:none;stroke:#e7872b;stroke-width:1.2974;stroke-linejoin:round;stroke-miterlimit:10"
             class="st23"
             points="-1558.5,1250.2 -1263.9,1397.8 -1457.5,1416.9 "
             id="polygon3652" /><polyline
             style="fill:none;stroke:#e7872b;stroke-width:1.2974;stroke-linejoin:round;stroke-miterlimit:10"
             class="st23"
             points="-1263.9,1397.8 -1558.5,1250.2 -1558.5,1201.8 -1180.1,1434.1 -1178.2,1440.7 -1263.9,1397.8         "
             id="polyline3654" /><polygon
             style="fill:none;stroke:#e7872b;stroke-width:1.2974;stroke-linejoin:round;stroke-miterlimit:10"
             class="st23"
             points="-1204.1,1478 -1314.7,1542.6 -1408.2,1524.7 -1190.7,1461.8 "
             id="polygon3656" /><polygon
             style="fill:none;stroke:#e7872b;stroke-width:1.2974;stroke-linejoin:round;stroke-miterlimit:10"
             class="st23"
             points="-1408.2,1524.7 -1408.2,1524.7 -1463.3,1476 -1397.1,1457.2 -1190.8,1461.1 -1190.7,1461.8 "
             id="polygon3658" /><polygon
             style="fill:none;stroke:#e7872b;stroke-width:1.2974;stroke-linejoin:round;stroke-miterlimit:10"
             class="st23"
             points="-1397.1,1457.2 -1334.4,1439.3 -1192.9,1457.8 -1191.3,1458.1 -1190.8,1461.1 "
             id="polygon3660" /></g></g></g><g
       id="g3766"><g
         id="g3680"><g
           id="g3678"><line
             style="fill:none;stroke:#e7872b;stroke-width:1.2974;stroke-miterlimit:10"
             class="st24"
             x1="-669.5"
             y1="1197.1"
             x2="-1015.8"
             y2="1412"
             id="line3668" /><g
             id="g3672"><polygon
               style="fill:#e7872b"
               class="st19"
               points="-659.8,1191 -669.7,1201.6 -673.7,1195.2 "
               id="polygon3670" /></g><g
             id="g3676"><polygon
               style="fill:#e7872b"
               class="st19"
               points="-1025.5,1418.1 -1011.6,1413.8 -1015.6,1407.4 "
               id="polygon3674" /></g></g></g><g
         id="g3694"><g
           id="g3692"><line
             style="fill:none;stroke:#e7872b;stroke-width:1.2974;stroke-miterlimit:10"
             class="st24"
             x1="-838.29999"
             y1="1280.5"
             x2="-1025.3"
             y2="1396.6"
             id="line3682" /><g
             id="g3686"><polygon
               style="fill:#e7872b"
               class="st19"
               points="-828.5,1274.4 -838.5,1285.1 -842.5,1278.6 "
               id="polygon3684" /></g><g
             id="g3690"><polygon
               style="fill:#e7872b"
               class="st19"
               points="-1035.1,1402.7 -1021.1,1398.4 -1025.1,1392 "
               id="polygon3688" /></g></g></g><g
         id="g3708"><g
           id="g3706"><line
             style="fill:none;stroke:#e7872b;stroke-width:1.2974;stroke-miterlimit:10"
             class="st24"
             x1="-630.5"
             y1="1291.5"
             x2="-630.5"
             y2="1727.8"
             id="line3696" /><g
             id="g3700"><polygon
               style="fill:#e7872b"
               class="st19"
               points="-630.5,1280.1 -626.7,1294.1 -634.3,1294.1 "
               id="polygon3698" /></g><g
             id="g3704"><polygon
               style="fill:#e7872b"
               class="st19"
               points="-630.5,1739.3 -626.7,1725.2 -634.3,1725.2 "
               id="polygon3702" /></g></g></g><g
         id="g3722"><g
           id="g3720"><line
             style="fill:none;stroke:#e7872b;stroke-width:1.2974;stroke-miterlimit:10"
             class="st24"
             x1="-614.59998"
             y1="1291.5"
             x2="-614.59998"
             y2="1584.4"
             id="line3710" /><g
             id="g3714"><polygon
               style="fill:#e7872b"
               class="st19"
               points="-614.6,1280.1 -610.8,1294.1 -618.4,1294.1 "
               id="polygon3712" /></g><g
             id="g3718"><polygon
               style="fill:#e7872b"
               class="st19"
               points="-614.6,1595.9 -610.8,1581.8 -618.4,1581.8 "
               id="polygon3716" /></g></g></g><g
         id="g3736"><g
           id="g3734"><line
             style="fill:none;stroke:#e7872b;stroke-width:1.2974;stroke-miterlimit:10"
             class="st24"
             x1="-944.90002"
             y1="1554.1"
             x2="-944.90002"
             y2="1727.8"
             id="line3724" /><g
             id="g3728"><polygon
               style="fill:#e7872b"
               class="st19"
               points="-944.9,1542.6 -941.1,1556.7 -948.7,1556.7 "
               id="polygon3726" /></g><g
             id="g3732"><polygon
               style="fill:#e7872b"
               class="st19"
               points="-944.9,1739.3 -941.1,1725.2 -948.7,1725.2 "
               id="polygon3730" /></g></g></g><g
         id="g3750"><g
           id="g3748"><line
             style="fill:none;stroke:#e7872b;stroke-width:1.2974;stroke-miterlimit:10"
             class="st24"
             x1="-653.40002"
             y1="1757.4"
             x2="-1087.4"
             y2="1757.4"
             id="line3738" /><g
             id="g3742"><polygon
               style="fill:#e7872b"
               class="st19"
               points="-641.9,1757.4 -656,1761.2 -656,1753.6 "
               id="polygon3740" /></g><g
             id="g3746"><polygon
               style="fill:#e7872b"
               class="st19"
               points="-1098.9,1757.4 -1084.8,1761.2 -1084.8,1753.6 "
               id="polygon3744" /></g></g></g><g
         id="g3764"><g
           id="g3762"><line
             style="fill:none;stroke:#e7872b;stroke-width:1.2974;stroke-miterlimit:10"
             class="st24"
             x1="-970.5"
             y1="1774.7"
             x2="-1087.4"
             y2="1774.7"
             id="line3752" /><g
             id="g3756"><polygon
               style="fill:#e7872b"
               class="st19"
               points="-959,1774.7 -973.1,1778.5 -973.1,1771 "
               id="polygon3754" /></g><g
             id="g3760"><polygon
               style="fill:#e7872b"
               class="st19"
               points="-1098.9,1774.7 -1084.8,1778.5 -1084.8,1771 "
               id="polygon3758" /></g></g></g></g><g
       id="g3772"><g
         id="g3770"><path
           style="fill:#e7872b"
           class="st19"
           d="m -747.9,1211.2 v 19.1 c 0,1.4 0,3 0.1,4.1 h -2.6 l -0.1,-2.7 h -0.1 c -0.9,1.8 -2.8,3.1 -5.4,3.1 -3.8,0 -6.8,-3.2 -6.8,-8 0,-5.3 3.2,-8.5 7.1,-8.5 2.4,0 4,1.1 4.8,2.4 h 0.1 v -9.4 h 2.9 z m -2.9,13.8 c 0,-0.4 0,-0.8 -0.1,-1.2 -0.4,-1.8 -2,-3.3 -4.1,-3.3 -3,0 -4.7,2.6 -4.7,6.1 0,3.2 1.6,5.8 4.7,5.8 1.9,0 3.7,-1.3 4.2,-3.4 0.1,-0.4 0.1,-0.8 0.1,-1.2 v -2.8 z"
           id="path3768" /></g></g><g
       id="g3798"><g
         id="g3776"><path
           style="fill:#e7872b"
           class="st19"
           d="m -859.9,1748.4 -0.2,-2 h -0.1 c -0.9,1.2 -2.6,2.4 -4.8,2.4 -3.2,0 -4.8,-2.3 -4.8,-4.5 0,-3.8 3.4,-5.9 9.5,-5.9 v -0.3 c 0,-1.3 -0.4,-3.7 -3.6,-3.7 -1.5,0 -3,0.5 -4.1,1.2 l -0.7,-1.9 c 1.3,-0.8 3.2,-1.4 5.2,-1.4 4.8,0 6,3.3 6,6.5 v 5.9 c 0,1.4 0.1,2.7 0.3,3.8 h -2.7 z m -0.5,-8.1 c -3.1,-0.1 -6.7,0.5 -6.7,3.6 0,1.9 1.2,2.7 2.7,2.7 2.1,0 3.4,-1.3 3.8,-2.6 0.1,-0.3 0.2,-0.6 0.2,-0.9 z"
           id="path3774" /></g><g
         id="g3780"><path
           style="fill:#e7872b"
           class="st19"
           d="m -1027.4,1808.7 c 0.1,-1.1 0.1,-2.7 0.1,-4.1 v -19.1 h 2.8 v 9.9 h 0.1 c 1,-1.8 2.8,-2.9 5.4,-2.9 3.9,0 6.7,3.3 6.7,8.1 0,5.6 -3.6,8.5 -7.1,8.5 -2.3,0 -4.1,-0.9 -5.3,-3 h -0.1 l -0.1,2.6 z m 3,-6.3 c 0,0.4 0.1,0.7 0.1,1 0.6,2 2.2,3.4 4.3,3.4 3,0 4.8,-2.4 4.8,-6.1 0,-3.2 -1.6,-5.9 -4.7,-5.9 -2,0 -3.8,1.3 -4.4,3.5 -0.1,0.3 -0.2,0.7 -0.2,1.2 v 2.9 z"
           id="path3778" /></g><g
         id="g3784"><path
           style="fill:#e7872b"
           class="st19"
           d="m -918.2,1653.6 c -0.8,0.4 -2.4,0.9 -4.5,0.9 -4.8,0 -7.9,-3.2 -7.9,-8.1 0,-4.9 3.3,-8.4 8.5,-8.4 1.7,0 3.2,0.4 4,0.8 l -0.7,2.2 c -0.7,-0.4 -1.8,-0.8 -3.3,-0.8 -3.6,0 -5.6,2.7 -5.6,6 0,3.7 2.4,5.9 5.5,5.9 1.6,0 2.7,-0.4 3.5,-0.8 z"
           id="path3782" /></g><g
         id="g3788"><path
           style="fill:#e7872b"
           class="st19"
           d="m -935.6,1318.6 c 0.1,3.9 2.5,5.5 5.4,5.5 2.1,0 3.3,-0.4 4.4,-0.8 l 0.5,2.1 c -1,0.5 -2.7,1 -5.3,1 -4.9,0 -7.8,-3.2 -7.8,-8 0,-4.8 2.8,-8.5 7.4,-8.5 5.2,0 6.5,4.5 6.5,7.4 0,0.6 -0.1,1 -0.1,1.3 z m 8.4,-2 c 0,-1.8 -0.8,-4.7 -4,-4.7 -2.9,0 -4.2,2.7 -4.4,4.7 z"
           id="path3786" /></g><g
         id="g3792"><path
           style="fill:#e7872b"
           class="st19"
           d="M -663.4,1524.6 V 1511 h -2.2 v -2.2 h 2.2 v -0.8 c 0,-2.2 0.5,-4.2 1.8,-5.5 1.1,-1 2.5,-1.5 3.9,-1.5 1,0 1.9,0.2 2.4,0.5 l -0.4,2.2 c -0.4,-0.2 -1,-0.4 -1.8,-0.4 -2.4,0 -3.1,2.2 -3.1,4.6 v 0.8 h 3.8 v 2.2 h -3.8 v 13.6 h -2.8 z"
           id="path3790" /></g><g
         id="g3796"><path
           style="fill:#e7872b"
           class="st19"
           d="m -587.5,1423.5 c -0.1,1.1 -0.1,2.4 -0.1,4.3 v 9.2 c 0,3.6 -0.7,5.8 -2.3,7.2 -1.5,1.4 -3.8,1.9 -5.7,1.9 -1.9,0 -4,-0.5 -5.3,-1.3 l 0.7,-2.2 c 1,0.7 2.7,1.2 4.6,1.2 2.9,0 5.1,-1.5 5.1,-5.5 v -1.8 h -0.1 c -0.9,1.5 -2.6,2.6 -5,2.6 -3.9,0 -6.7,-3.3 -6.7,-7.7 0,-5.4 3.5,-8.4 7.1,-8.4 2.7,0 4.2,1.4 4.9,2.7 h 0.1 l 0.1,-2.4 h 2.6 z m -3,6.2 c 0,-0.5 0,-0.9 -0.2,-1.3 -0.5,-1.7 -1.9,-3 -4,-3 -2.7,0 -4.7,2.3 -4.7,6 0,3.1 1.6,5.7 4.7,5.7 1.8,0 3.4,-1.1 4,-2.9 0.2,-0.5 0.2,-1 0.2,-1.5 z"
           id="path3794" /></g></g></g></svg>